<?xml version="1.0" encoding="UTF-8"?>
<svg width="20px" height="20px" viewBox="0 0 20 20" version="1.1" xmlns="http://www.w3.org/2000/svg" xmlns:xlink="http://www.w3.org/1999/xlink">
    <title>icon/zoom/grey/20</title>
    <g id="页面-1" stroke="none" stroke-width="1" fill="none" fill-rule="evenodd">
        <g id="07-方案2-Pc-创建会议室备份-2" transform="translate(-308.000000, -326.000000)">
            <g id="Group-3" transform="translate(104.000000, 270.000000)">
                <g id="icon/zoom/grey/20" transform="translate(204.000000, 56.000000)">
                    <rect id="Rectangle" fill-opacity="0" fill="#A3A3A3" fill-rule="nonzero" x="0" y="0" width="20" height="20"></rect>
                    <path d="M10.9564197,6 C12.3524158,6 13.4840943,7.00186046 13.4840943,8.23771796 L13.4840943,13.9918499 C13.4840943,14.344952 13.1607576,14.6311978 12.7619016,14.6311978 L4.52767469,14.6311978 C3.13167849,14.6311978 2,13.6293374 2,12.3934799 L2,6.63934799 C2,6.28624584 2.3233367,6 2.72219278,6 L10.9564197,6 Z M18,6.65672521 L18,14.1621114 C18,14.4484731 17.767858,14.6806151 17.4814963,14.6806151 C17.3626256,14.6806151 17.2473644,14.6397709 17.1550169,14.5649232 L14.4916286,12.4062441 C14.187958,12.1601188 14.0115677,11.7901028 14.0115677,11.3992147 L14.0115677,9.41962191 C14.0115677,9.02873381 14.187958,8.65871782 14.4916286,8.41259249 L17.1550169,6.25391347 C17.3774837,6.07360389 17.7039985,6.10777907 17.8843081,6.33024585 C17.9591558,6.42259331 18,6.53785456 18,6.65672521 Z" id="形状结合" fill-opacity="0.36" fill="#000000"></path>
                </g>
            </g>
        </g>
    </g>
</svg>