<?xml version="1.0" encoding="UTF-8"?>
<svg width="16px" height="16px" viewBox="0 0 16 16" version="1.1" xmlns="http://www.w3.org/2000/svg" xmlns:xlink="http://www.w3.org/1999/xlink">
    <title>icon/zoom/colour/16</title>
    <g id="页面-1" stroke="none" stroke-width="1" fill="none" fill-rule="evenodd">
        <g id="01-方案1-App-创建会议" transform="translate(-40.000000, -97.000000)" fill-rule="nonzero">
            <g id="icon/zoom/colour/16" transform="translate(40.000000, 97.000000)">
                <rect id="Rectangle" fill-opacity="0" fill="#A3A3A3" x="0" y="0" width="16" height="16"></rect>
                <path d="M8.76513572,4.8 C9.88193265,4.8 10.7872755,5.60148836 10.7872755,6.59017437 L10.7872755,11.1934799 C10.7872755,11.4759616 10.5286061,11.7049583 10.2095213,11.7049583 L3.62213975,11.7049583 C2.50534279,11.7049583 1.6,10.9034699 1.6,9.91478391 L1.6,5.31147839 C1.6,5.02899668 1.85866936,4.8 2.17775423,4.8 L8.76513572,4.8 Z M14.4,5.32538017 L14.4,11.3296891 C14.4,11.5587785 14.2142864,11.7444921 13.985197,11.7444921 C13.8901005,11.7444921 13.7978915,11.7118167 13.7240136,11.6519386 L11.5933029,9.92499532 C11.3503664,9.72809506 11.2092542,9.43208227 11.2092542,9.11937178 L11.2092542,7.53569753 C11.2092542,7.22298705 11.3503664,6.92697425 11.5933029,6.73007399 L13.7240136,5.00313077 C13.901987,4.85888311 14.1631988,4.88622326 14.3074465,5.06419668 C14.3673246,5.13807464 14.4,5.23028365 14.4,5.32538017 Z" id="形状结合" fill="#2A8EFE"></path>
            </g>
        </g>
    </g>
</svg>