<?xml version="1.0" encoding="UTF-8"?>
<svg width="135px" height="135px" viewBox="0 0 135 135" version="1.1" xmlns="http://www.w3.org/2000/svg" xmlns:xlink="http://www.w3.org/1999/xlink">
    <!-- Generator: Sketch 63.1 (92452) - https://sketch.com -->
    <title>Group 2 Copy 2</title>
    <desc>Created with Sketch.</desc>
    <g id="Page-1" stroke="none" stroke-width="1" fill="none" fill-rule="evenodd">
        <g id="Group-2-Copy-2" fill="#A3A3A3" fill-rule="nonzero">
            <path d="M135,0 L135,135 L0,135 L0,0 L135,0 Z M82.5718106,45.4759676 L68.1320911,60.0519676 L53.4281894,45.4759676 L28.4949786,70.1926369 C28.4805243,70.2069657 28.4661325,70.2213575 28.4518037,70.2358119 C25.7300821,72.9813783 25.7494121,77.413491 28.4949786,80.1352126 L28.4949786,80.1352126 L38.4541635,90.0079034 L53.1590911,75.4289676 L67.8609108,90.0129208 L82.7120911,75.2999676 L97.5458365,90.0079034 L100.672305,86.9085874 L107.505021,80.1352126 L107.687994,79.9470302 C110.250051,77.2129025 110.208061,72.9189791 107.548196,70.2358119 C107.533868,70.2213575 107.519476,70.2069657 107.505021,70.1926369 L107.505021,70.1926369 L82.5718106,45.4759676 Z" id="Combined-Shape"></path>
        </g>
    </g>
</svg>