<?xml version="1.0" encoding="UTF-8"?>
<svg width="272px" height="52px" viewBox="0 0 272 52" version="1.1" xmlns="http://www.w3.org/2000/svg" xmlns:xlink="http://www.w3.org/1999/xlink">
    <!-- Generator: Sketch 57 (83077) - https://sketch.com -->
    <title>CTI logo</title>
    <desc>Created with Sketch.</desc>
    <g id="CTI-支持三级目录搜索" stroke="none" stroke-width="1" fill="none" fill-rule="evenodd">
        <g id="设计" transform="translate(-2056.000000, -769.000000)">
            <g id="CTI-logo" transform="translate(2056.000000, 769.000000)">
                <path d="M45.2249,9.396 L36.4149,20.787 C33.6529,16.704 29.5109,14.052 25.9609,14.052 C20.4379,14.052 16.4269,18.853 16.4269,25.515 C16.4269,32.25 20.4379,37.123 25.9609,37.123 C29.2479,37.123 33.3909,34.901 36.4149,31.391 L45.2249,41.636 C40.0969,47.726 32.2729,51.667 25.1719,51.667 C11.0359,51.667 0.7789,40.705 0.7789,25.73 C0.7789,10.971 11.2989,0.225 25.7639,0.225 C32.7989,0.225 40.4909,3.807 45.2249,9.396" id="Fill-95" fill="#474747"></path>
                <polygon id="Fill-97" fill="#474747" points="75.3358 13.8374 75.3358 50.9504 60.0828 50.9504 60.0828 13.8374 46.9988 13.8374 46.9988 0.7264 88.4858 0.7264 88.4858 13.8374"></polygon>
                <polygon id="Fill-99" fill="#474747" points="93.744 50.951 108.997 50.951 108.997 0.726 93.744 0.726"></polygon>
                <polygon id="Fill-101" fill="#474747" points="135.6238 32.394 135.6238 43.857 126.4188 43.857 126.4188 32.394 115.8988 32.394 115.8988 22.363 126.4188 22.363 126.4188 10.9 135.6238 10.9 135.6238 22.363 146.1438 22.363 146.1438 32.394"></polygon>
                <path d="M175.334,25.3012 C178.621,25.3012 180.528,23.0792 180.528,19.2112 C180.528,15.4852 178.621,13.3362 175.334,13.3362 L168.299,13.3362 L168.299,25.3012 L175.334,25.3012 Z M174.019,37.9102 L168.299,37.9102 L168.299,50.9502 L153.045,50.9502 L153.045,0.7262 L175.334,0.7262 C187.826,0.7262 194.993,7.2452 194.993,18.7092 C194.993,26.0172 192.428,31.4622 187.695,34.6142 L196.768,50.9502 L179.542,50.9502 L174.019,37.9102 Z" id="Fill-102" fill="#474747"></path>
                <path d="M245.2225,24.5132 L245.2225,45.2182 C240.0945,48.9442 231.6125,51.6662 225.0375,51.6662 C210.5735,51.6662 200.0535,40.7762 200.0535,25.8742 C200.0535,11.0432 210.9675,0.2252 226.0245,0.2252 C233.1905,0.2252 241.0145,3.2342 245.9455,7.9622 L237.3325,19.3542 C234.2425,16.1302 229.7715,14.0522 225.9585,14.0522 C220.0405,14.0522 215.7015,19.0672 215.7015,25.8742 C215.7015,32.8242 220.1065,37.8392 226.0895,37.8392 C227.6675,37.8392 229.9035,37.1942 232.1385,36.1912 L232.1385,24.5132 L245.2225,24.5132 Z" id="Fill-103" fill="#474747"></path>
                <polygon id="Fill-104" fill="#236FD9" points="75.326 13.852 88.485 13.852 88.485 0.723 75.326 0.723"></polygon>
                <polygon id="Fill-105" fill="#12D8AB" points="258.419 51.137 271.578 51.137 271.578 38.009 258.419 38.009"></polygon>
            </g>
        </g>
    </g>
</svg>