<?xml version="1.0" encoding="UTF-8"?>
<svg width="16px" height="16px" viewBox="0 0 16 16" version="1.1" xmlns="http://www.w3.org/2000/svg" xmlns:xlink="http://www.w3.org/1999/xlink">
    <!-- Generator: Sketch 59 (86127) - https://sketch.com -->
    <title>切片</title>
    <desc>Created with Sketch.</desc>
    <g id="确定方案" stroke="none" stroke-width="1" fill="none" fill-rule="evenodd">
        <g id="编组-35备份">
            <rect id="矩形" fill-opacity="0" fill="#FF5F57" x="0" y="0" width="16" height="16"></rect>
            <path d="M4.6,2 C4.8209139,2 5,2.1790861 5,2.4 L5,13.6 C5,13.8209139 4.8209139,14 4.6,14 L3.4,14 C3.1790861,14 3,13.8209139 3,13.6 L3,2.4 C3,2.1790861 3.1790861,2 3.4,2 L4.6,2 Z M8.6,2 C8.8209139,2 9,2.1790861 9,2.4 L9,13.6 C9,13.8209139 8.8209139,14 8.6,14 L7.4,14 C7.1790861,14 7,13.8209139 7,13.6 L7,2.4 C7,2.1790861 7.1790861,2 7.4,2 L8.6,2 Z M12.6,2 C12.8209139,2 13,2.1790861 13,2.4 L13,13.6 C13,13.8209139 12.8209139,14 12.6,14 L11.4,14 C11.1790861,14 11,13.8209139 11,13.6 L11,2.4 C11,2.1790861 11.1790861,2 11.4,2 L12.6,2 Z" id="形状结合" fill="#F5483B"></path>
        </g>
    </g>
</svg>