<?xml version="1.0" encoding="UTF-8"?>
<svg width="16px" height="16px" viewBox="0 0 16 16" version="1.1" xmlns="http://www.w3.org/2000/svg" xmlns:xlink="http://www.w3.org/1999/xlink">
    <title>icon/绑定</title>
    <g id="icon/绑定" stroke="none" stroke-width="1" fill="none" fill-rule="evenodd">
        <g id="link-o备份" opacity="0" fill="#000000" fill-opacity="0.84" fill-rule="nonzero">
            <rect id="矩形" x="0" y="0" width="16" height="16"></rect>
            <path d="M8.32653061,12.9524898 C6.79379592,14.4852245 4.30824489,14.4852245 2.7755102,12.9524898 C1.24277552,11.4194286 1.24277552,8.93420408 2.7755102,7.40146939 L3.46938775,8.09534694 C2.71414013,8.83670021 2.41492062,9.92638082 2.68566471,10.949465 C2.9564088,11.9725492 3.75545077,12.7715912 4.77853497,13.0423353 C5.80161918,13.3130794 6.89129979,13.0138599 7.63265306,12.2586123 L8.32653061,12.9524898 Z M13.1742041,8.08587755 L12.4770612,7.38873469 C13.4110651,6.21715139 13.3162719,4.53098544 12.2568396,3.47146956 C11.1974073,2.41195367 9.51124885,2.31702737 8.33959184,3.25093878 L7.64212245,2.55346939 C9.18432653,1.24636734 11.4974694,1.32016327 12.9524898,2.77518367 C14.4075102,4.23020408 14.4813061,6.54334694 13.1745306,8.08555102 L13.1742041,8.08587755 Z M2.7755102,7.40146939 L4.39444898,5.78220408 L5.08832653,6.47608163 L3.46938775,8.09534694 L2.7755102,7.40146939 Z M6.01371428,4.16326531 L7.63265306,2.54432653 L8.32653061,3.23820408 L6.70759184,4.85714286 L6.01371428,4.16326531 Z M7.63265306,12.2586123 L9.25159184,10.6393469 L9.94546939,11.3332245 L8.32653061,12.9524898 L7.63265306,12.2586123 L7.63265306,12.2586123 Z M6.12930612,8.9044898 L8.90481633,6.12897959 L9.59869388,6.82285714 L6.82318367,9.59836734 L6.12930612,8.9044898 L6.12930612,8.9044898 Z M10.8705306,9.02008163 L12.4901225,7.40114286 L13.1836735,8.09502041 L11.5647347,9.71395919 L10.8708571,9.02008163 L10.8705306,9.02008163 Z" id="形状"></path>
        </g>
        <g id="关联" transform="translate(2.000000, 3.000000)" fill="#0A70F5" fill-rule="nonzero">
            <path d="M8.74410225,0 C8.89028542,0 9.00958076,0.116623328 9.01668904,0.263738448 L9.01699871,0.278198492 L9.01236226,6.13576991 L9.01699871,7.62515347 C9.01730714,7.77384035 8.90264763,7.89549326 8.75831879,7.90303762 L5.09014124,7.90303762 L5.09014124,6.9452175 L8.0706707,6.9452175 L8.0706707,0.958134469 L0.947563776,0.958134469 L0.947563776,6.9458462 L3.93860113,6.9458462 L3.93860113,7.9036665 L0.273205066,7.9036665 C0.200721473,7.90374986 0.131183007,7.87449969 0.079929336,7.82236819 C0.0286756649,7.77023668 0,7.69950721 0,7.62578217 L0,0.27756979 C0,0.124167679 0.122386081,0 0.272896015,0 L8.74410225,0 Z" id="路径"></path>
            <path d="M12,3.31669186 L12,10.72243 C12,10.8757276 11.8778204,11 11.7271042,11 L3.26640582,11 C3.19397581,11.0000833 3.12448426,10.9708762 3.07323949,10.9188127 C3.02199473,10.8667493 2.99320091,10.7961006 2.99320091,10.72243 L2.99320091,3.3163775 C2.99320091,3.16769062 3.10816949,3.04603772 3.25280738,3.03880771 L6.90027823,3.03880771 L6.90027823,3.99662783 L3.93520152,3.99662783 L3.93520152,9.98402522 L11.0579994,9.98402522 L11.0579994,3.99662783 L8.0756156,3.99662783 L8.0756156,3.03880771 L11.7271042,3.03880771 C11.8779232,3.03880771 12,3.16328975 12,3.31669186 Z" id="路径"></path>
        </g>
    </g>
</svg>